<?xml version="1.0" encoding="UTF-8" standalone="no"?>
<!DOCTYPE svg PUBLIC "-//W3C//DTD SVG 1.1//EN"
 "http://www.w3.org/Graphics/SVG/1.1/DTD/svg11.dtd">
<!-- Generated by graphviz version 2.38.0 (20140413.2041)
 -->
<!-- Title: dependencies Pages: 1 -->
<svg width="2828pt" height="425pt"
 viewBox="0.00 0.00 2828.00 425.00" xmlns="http://www.w3.org/2000/svg" xmlns:xlink="http://www.w3.org/1999/xlink">
<g id="graph0" class="graph" transform="scale(1 1) rotate(0) translate(4 421)">
<title>dependencies</title>
<polygon fill="white" stroke="none" points="-4,4 -4,-421 2824,-421 2824,4 -4,4"/>
<text text-anchor="start" x="1389.01" y="-42.4" font-family="sans-serif" font-weight="bold" font-size="14.00">Legend</text>
<polygon fill="#ffffb3" stroke="none" points="1176,-10 1176,-30 1196,-30 1196,-10 1176,-10"/>
<text text-anchor="start" x="1199.63" y="-15.4" font-family="sans-serif" font-size="14.00"> &#160;Declarations</text>
<polygon fill="#8dd3c7" stroke="none" points="1289,-10 1289,-30 1309,-30 1309,-10 1289,-10"/>
<text text-anchor="start" x="1312.73" y="-15.4" font-family="sans-serif" font-size="14.00"> &#160;Module</text>
<polygon fill="#80b1d3" stroke="none" points="1375,-10 1375,-30 1395,-30 1395,-10 1375,-10"/>
<text text-anchor="start" x="1398.78" y="-15.4" font-family="sans-serif" font-size="14.00"> &#160;Bootstrap</text>
<polygon fill="#fdb462" stroke="none" points="1472,-10 1472,-30 1492,-30 1492,-10 1472,-10"/>
<text text-anchor="start" x="1495.67" y="-15.4" font-family="sans-serif" font-size="14.00"> &#160;Providers</text>
<polygon fill="#fb8072" stroke="none" points="1568,-10 1568,-30 1588,-30 1588,-10 1568,-10"/>
<text text-anchor="start" x="1591.73" y="-15.4" font-family="sans-serif" font-size="14.00"> &#160;Exports</text>
<g id="clust1" class="cluster"><title>cluster_AppModule</title>
<polygon fill="none" stroke="black" stroke-dasharray="1,5" points="616,-146 616,-409 1809,-409 1809,-146 616,-146"/>
</g>
<g id="clust2" class="cluster"><title>cluster_AppModule_declarations</title>
<polygon fill="none" stroke="black" points="1679,-219 1679,-271 1801,-271 1801,-219 1679,-219"/>
</g>
<g id="clust4" class="cluster"><title>cluster_AppModule_imports</title>
<polygon fill="none" stroke="black" points="624,-154 624,-271 1671,-271 1671,-154 624,-154"/>
</g>
<g id="clust6" class="cluster"><title>cluster_AppModule_bootstrap</title>
<polygon fill="none" stroke="black" points="1255,-349 1255,-401 1379,-401 1379,-349 1255,-349"/>
</g>
<g id="clust8" class="cluster"><title>cluster_ChatRoomModule</title>
<polygon fill="none" stroke="black" stroke-dasharray="1,5" points="1355,-70 1355,-138 2812,-138 2812,-70 1355,-70"/>
</g>
<g id="clust9" class="cluster"><title>cluster_ChatRoomModule_declarations</title>
<polygon fill="none" stroke="black" points="1363,-78 1363,-130 1985,-130 1985,-78 1363,-78"/>
</g>
<g id="clust14" class="cluster"><title>cluster_ChatRoomModule_imports</title>
<polygon fill="none" stroke="black" points="1993,-78 1993,-130 2444,-130 2444,-78 1993,-78"/>
</g>
<g id="clust17" class="cluster"><title>cluster_ChatRoomModule_providers</title>
<polygon fill="none" stroke="black" points="2452,-78 2452,-130 2804,-130 2804,-78 2452,-78"/>
</g>
<g id="clust18" class="cluster"><title>cluster_CoreModule</title>
<polygon fill="none" stroke="black" stroke-dasharray="1,5" points="1077,-70 1077,-138 1347,-138 1347,-70 1077,-70"/>
</g>
<g id="clust20" class="cluster"><title>cluster_CoreModule_imports</title>
<polygon fill="none" stroke="black" points="1085,-78 1085,-130 1339,-130 1339,-78 1085,-78"/>
</g>
<g id="clust24" class="cluster"><title>cluster_HomeModule</title>
<polygon fill="none" stroke="black" stroke-dasharray="1,5" points="645,-70 645,-138 1069,-138 1069,-70 645,-70"/>
</g>
<g id="clust25" class="cluster"><title>cluster_HomeModule_declarations</title>
<polygon fill="none" stroke="black" points="797,-78 797,-130 1061,-130 1061,-78 797,-78"/>
</g>
<g id="clust29" class="cluster"><title>cluster_HomeModule_exports</title>
<polygon fill="none" stroke="black" points="653,-78 653,-130 789,-130 789,-78 653,-78"/>
</g>
<g id="clust32" class="cluster"><title>cluster_SharedModule</title>
<polygon fill="none" stroke="black" stroke-dasharray="1,5" points="8,-70 8,-138 637,-138 637,-70 8,-70"/>
</g>
<g id="clust33" class="cluster"><title>cluster_SharedModule_declarations</title>
<polygon fill="none" stroke="black" points="489,-78 489,-130 629,-130 629,-78 489,-78"/>
</g>
<g id="clust36" class="cluster"><title>cluster_SharedModule_exports</title>
<polygon fill="none" stroke="black" points="337,-78 337,-130 481,-130 481,-78 337,-78"/>
</g>
<g id="clust38" class="cluster"><title>cluster_SharedModule_providers</title>
<polygon fill="none" stroke="black" points="16,-78 16,-130 329,-130 329,-78 16,-78"/>
</g>
<!-- AppComponent -->
<g id="node1" class="node"><title>AppComponent</title>
<polygon fill="#ffffb3" stroke="black" points="1792.94,-263 1687.06,-263 1687.06,-227 1792.94,-227 1792.94,-263"/>
<text text-anchor="middle" x="1740" y="-240.8" font-family="Times,serif" font-size="14.00">AppComponent</text>
</g>
<!-- AppModule -->
<g id="node2" class="node"><title>AppModule</title>
<polygon fill="#8dd3c7" stroke="black" points="1358.66,-328 1355.66,-332 1334.66,-332 1331.66,-328 1275.34,-328 1275.34,-292 1358.66,-292 1358.66,-328"/>
<text text-anchor="middle" x="1317" y="-305.8" font-family="Times,serif" font-size="14.00">AppModule</text>
</g>
<!-- AppComponent&#45;&gt;AppModule -->
<g id="edge1" class="edge"><title>AppComponent&#45;&gt;AppModule</title>
<path fill="none" stroke="black" d="M1740,-263.284C1740,-284.321 1740,-316 1740,-316 1740,-316 1368.72,-316 1368.72,-316"/>
<polygon fill="black" stroke="black" points="1368.72,-312.5 1358.72,-316 1368.72,-319.5 1368.72,-312.5"/>
</g>
<!-- AppComponent  -->
<g id="node12" class="node"><title>AppComponent </title>
<polygon fill="#80b1d3" stroke="black" points="1371.44,-393 1262.56,-393 1262.56,-357 1371.44,-357 1371.44,-393"/>
<text text-anchor="middle" x="1317" y="-370.8" font-family="Times,serif" font-size="14.00">AppComponent </text>
</g>
<!-- AppModule&#45;&gt;AppComponent  -->
<g id="edge11" class="edge"><title>AppModule&#45;&gt;AppComponent </title>
<path fill="none" stroke="black" stroke-dasharray="1,5" d="M1317,-328.106C1317,-328.106 1317,-346.991 1317,-346.991"/>
<polygon fill="black" stroke="black" points="1313.5,-346.991 1317,-356.991 1320.5,-346.991 1313.5,-346.991"/>
</g>
<!-- BrowserModule -->
<g id="node3" class="node"><title>BrowserModule</title>
<polygon fill="#8dd3c7" stroke="black" points="1663.47,-198 1660.47,-202 1639.47,-202 1636.47,-198 1556.53,-198 1556.53,-162 1663.47,-162 1663.47,-198"/>
<text text-anchor="middle" x="1610" y="-175.8" font-family="Times,serif" font-size="14.00">BrowserModule</text>
</g>
<!-- BrowserModule&#45;&gt;AppModule -->
<g id="edge2" class="edge"><title>BrowserModule&#45;&gt;AppModule</title>
<path fill="none" stroke="black" d="M1569.84,-198.168C1569.84,-200.448 1569.84,-202 1569.84,-202 1569.84,-202 1349.72,-202 1349.72,-202 1349.72,-202 1349.72,-281.679 1349.72,-281.679"/>
<polygon fill="black" stroke="black" points="1346.22,-281.679 1349.72,-291.679 1353.22,-281.679 1346.22,-281.679"/>
</g>
<!-- FormsModule -->
<g id="node4" class="node"><title>FormsModule</title>
<polygon fill="#8dd3c7" stroke="black" points="1024.83,-198 1021.83,-202 1000.83,-202 997.829,-198 929.171,-198 929.171,-162 1024.83,-162 1024.83,-198"/>
<text text-anchor="middle" x="977" y="-175.8" font-family="Times,serif" font-size="14.00">FormsModule</text>
</g>
<!-- FormsModule&#45;&gt;AppModule -->
<g id="edge3" class="edge"><title>FormsModule&#45;&gt;AppModule</title>
<path fill="none" stroke="black" d="M961.112,-198.196C961.112,-233.313 961.112,-307 961.112,-307 961.112,-307 1265.13,-307 1265.13,-307"/>
<polygon fill="black" stroke="black" points="1265.13,-310.5 1275.13,-307 1265.13,-303.5 1265.13,-310.5"/>
</g>
<!-- ChatRoomModule -->
<g id="node11" class="node"><title>ChatRoomModule</title>
<polygon fill="#8dd3c7" stroke="black" points="1663.22,-263 1660.22,-267 1639.22,-267 1636.22,-263 1542.78,-263 1542.78,-227 1663.22,-227 1663.22,-263"/>
<text text-anchor="middle" x="1603" y="-240.8" font-family="Times,serif" font-size="14.00">ChatRoomModule</text>
</g>
<!-- FormsModule&#45;&gt;ChatRoomModule -->
<g id="edge17" class="edge"><title>FormsModule&#45;&gt;ChatRoomModule</title>
<path fill="none" stroke="black" d="M992.888,-198.129C992.888,-218.572 992.888,-249 992.888,-249 992.888,-249 1532.83,-249 1532.83,-249"/>
<polygon fill="black" stroke="black" points="1532.83,-252.5 1542.83,-249 1532.83,-245.5 1532.83,-252.5"/>
</g>
<!-- HttpModule -->
<g id="node5" class="node"><title>HttpModule</title>
<polygon fill="#8dd3c7" stroke="black" points="716.439,-198 713.439,-202 692.439,-202 689.439,-198 631.561,-198 631.561,-162 716.439,-162 716.439,-198"/>
<text text-anchor="middle" x="674" y="-175.8" font-family="Times,serif" font-size="14.00">HttpModule</text>
</g>
<!-- HttpModule&#45;&gt;AppModule -->
<g id="edge4" class="edge"><title>HttpModule&#45;&gt;AppModule</title>
<path fill="none" stroke="black" d="M674,-198.145C674,-236.226 674,-321 674,-321 674,-321 1265.31,-321 1265.31,-321"/>
<polygon fill="black" stroke="black" points="1265.31,-324.5 1275.31,-321 1265.31,-317.5 1265.31,-324.5"/>
</g>
<!-- RouterModule.forRoot(args) -->
<g id="node6" class="node"><title>RouterModule.forRoot(args)</title>
<polygon fill="#8dd3c7" stroke="black" points="911.842,-198 908.842,-202 887.842,-202 884.842,-198 734.158,-198 734.158,-162 911.842,-162 911.842,-198"/>
<text text-anchor="middle" x="823" y="-175.8" font-family="Times,serif" font-size="14.00">RouterModule.forRoot(args)</text>
</g>
<!-- RouterModule.forRoot(args)&#45;&gt;AppModule -->
<g id="edge5" class="edge"><title>RouterModule.forRoot(args)&#45;&gt;AppModule</title>
<path fill="none" stroke="black" d="M823,-198.072C823,-234.648 823,-314 823,-314 823,-314 1265.31,-314 1265.31,-314"/>
<polygon fill="black" stroke="black" points="1265.31,-317.5 1275.31,-314 1265.31,-310.5 1265.31,-317.5"/>
</g>
<!-- MaterialModule.forRoot() -->
<g id="node7" class="node"><title>MaterialModule.forRoot()</title>
<polygon fill="#8dd3c7" stroke="black" points="1205.84,-198 1202.84,-202 1181.84,-202 1178.84,-198 1042.16,-198 1042.16,-162 1205.84,-162 1205.84,-198"/>
<text text-anchor="middle" x="1124" y="-175.8" font-family="Times,serif" font-size="14.00">MaterialModule.forRoot()</text>
</g>
<!-- MaterialModule.forRoot()&#45;&gt;AppModule -->
<g id="edge6" class="edge"><title>MaterialModule.forRoot()&#45;&gt;AppModule</title>
<path fill="none" stroke="black" d="M1124,-198.225C1124,-231.795 1124,-300 1124,-300 1124,-300 1265.12,-300 1265.12,-300"/>
<polygon fill="black" stroke="black" points="1265.12,-303.5 1275.12,-300 1265.12,-296.5 1265.12,-303.5"/>
</g>
<!-- CoreModule -->
<g id="node8" class="node"><title>CoreModule</title>
<polygon fill="#8dd3c7" stroke="black" points="1427.26,-198 1424.26,-202 1403.26,-202 1400.26,-198 1340.74,-198 1340.74,-162 1427.26,-162 1427.26,-198"/>
<text text-anchor="middle" x="1384" y="-175.8" font-family="Times,serif" font-size="14.00">CoreModule</text>
</g>
<!-- CoreModule&#45;&gt;AppModule -->
<g id="edge7" class="edge"><title>CoreModule&#45;&gt;AppModule</title>
<path fill="none" stroke="black" d="M1345.17,-198.076C1345.17,-198.076 1345.17,-281.658 1345.17,-281.658"/>
<polygon fill="black" stroke="black" points="1341.67,-281.658 1345.17,-291.658 1348.67,-281.659 1341.67,-281.658"/>
</g>
<!-- SharedModule -->
<g id="node9" class="node"><title>SharedModule</title>
<polygon fill="#8dd3c7" stroke="black" points="1322.42,-198 1319.42,-202 1298.42,-202 1295.42,-198 1223.58,-198 1223.58,-162 1322.42,-162 1322.42,-198"/>
<text text-anchor="middle" x="1273" y="-175.8" font-family="Times,serif" font-size="14.00">SharedModule</text>
</g>
<!-- SharedModule&#45;&gt;AppModule -->
<g id="edge8" class="edge"><title>SharedModule&#45;&gt;AppModule</title>
<path fill="none" stroke="black" d="M1290.85,-198.076C1290.85,-198.076 1290.85,-281.658 1290.85,-281.658"/>
<polygon fill="black" stroke="black" points="1287.35,-281.658 1290.85,-291.658 1294.35,-281.659 1287.35,-281.658"/>
</g>
<!-- SharedModule&#45;&gt;ChatRoomModule -->
<g id="edge20" class="edge"><title>SharedModule&#45;&gt;ChatRoomModule</title>
<path fill="none" stroke="black" d="M1306.53,-198.267C1306.53,-216.555 1306.53,-242 1306.53,-242 1306.53,-242 1532.65,-242 1532.65,-242"/>
<polygon fill="black" stroke="black" points="1532.65,-245.5 1542.65,-242 1532.65,-238.5 1532.65,-245.5"/>
</g>
<!-- CameraComponent  -->
<g id="node27" class="node"><title>CameraComponent </title>
<polygon fill="#fb8072" stroke="black" points="473.365,-122 344.635,-122 344.635,-86 473.365,-86 473.365,-122"/>
<text text-anchor="middle" x="409" y="-99.8" font-family="Times,serif" font-size="14.00">CameraComponent </text>
</g>
<!-- SharedModule&#45;&gt;CameraComponent  -->
<g id="edge32" class="edge"><title>SharedModule&#45;&gt;CameraComponent </title>
<path fill="none" stroke="black" stroke-dasharray="5,2" d="M1273,-161.793C1273,-156.445 1273,-152 1273,-152 1273,-152 409,-152 409,-152 409,-152 409,-132.147 409,-132.147"/>
<polygon fill="black" stroke="black" points="412.5,-132.147 409,-122.147 405.5,-132.147 412.5,-132.147"/>
</g>
<!-- HomeModule -->
<g id="node10" class="node"><title>HomeModule</title>
<polygon fill="#8dd3c7" stroke="black" points="1538.76,-198 1535.76,-202 1514.76,-202 1511.76,-198 1445.24,-198 1445.24,-162 1538.76,-162 1538.76,-198"/>
<text text-anchor="middle" x="1492" y="-175.8" font-family="Times,serif" font-size="14.00">HomeModule</text>
</g>
<!-- HomeModule&#45;&gt;AppModule -->
<g id="edge9" class="edge"><title>HomeModule&#45;&gt;AppModule</title>
<path fill="none" stroke="black" d="M1492,-198.031C1492,-232.422 1492,-304 1492,-304 1492,-304 1368.92,-304 1368.92,-304"/>
<polygon fill="black" stroke="black" points="1368.92,-300.5 1358.92,-304 1368.92,-307.5 1368.92,-300.5"/>
</g>
<!-- HomeComponent  -->
<g id="node25" class="node"><title>HomeComponent </title>
<polygon fill="#fb8072" stroke="black" points="780.544,-122 661.456,-122 661.456,-86 780.544,-86 780.544,-122"/>
<text text-anchor="middle" x="721" y="-99.8" font-family="Times,serif" font-size="14.00">HomeComponent </text>
</g>
<!-- HomeModule&#45;&gt;HomeComponent  -->
<g id="edge29" class="edge"><title>HomeModule&#45;&gt;HomeComponent </title>
<path fill="none" stroke="black" stroke-dasharray="5,2" d="M1462.09,-161.806C1462.09,-153.722 1462.09,-146 1462.09,-146 1462.09,-146 757.426,-146 757.426,-146 757.426,-146 757.426,-132.056 757.426,-132.056"/>
<polygon fill="black" stroke="black" points="760.926,-132.055 757.426,-122.056 753.926,-132.056 760.926,-132.055"/>
</g>
<!-- ChatRoomModule&#45;&gt;AppModule -->
<g id="edge10" class="edge"><title>ChatRoomModule&#45;&gt;AppModule</title>
<path fill="none" stroke="black" d="M1542.79,-256C1469.18,-256 1354.28,-256 1354.28,-256 1354.28,-256 1354.28,-281.718 1354.28,-281.718"/>
<polygon fill="black" stroke="black" points="1350.78,-281.718 1354.28,-291.718 1357.78,-281.718 1350.78,-281.718"/>
</g>
<!-- ChatRoomComponent -->
<g id="node13" class="node"><title>ChatRoomComponent</title>
<polygon fill="#ffffb3" stroke="black" points="1513,-122 1371,-122 1371,-86 1513,-86 1513,-122"/>
<text text-anchor="middle" x="1442" y="-99.8" font-family="Times,serif" font-size="14.00">ChatRoomComponent</text>
</g>
<!-- ChatRoomComponent&#45;&gt;ChatRoomModule -->
<g id="edge12" class="edge"><title>ChatRoomComponent&#45;&gt;ChatRoomModule</title>
<path fill="none" stroke="black" d="M1436.25,-122.215C1436.25,-158.21 1436.25,-235 1436.25,-235 1436.25,-235 1532.8,-235 1532.8,-235"/>
<polygon fill="black" stroke="black" points="1532.8,-238.5 1542.8,-235 1532.8,-231.5 1532.8,-238.5"/>
</g>
<!-- RoomsListComponent -->
<g id="node14" class="node"><title>RoomsListComponent</title>
<polygon fill="#ffffb3" stroke="black" points="1673.28,-122 1530.72,-122 1530.72,-86 1673.28,-86 1673.28,-122"/>
<text text-anchor="middle" x="1602" y="-99.8" font-family="Times,serif" font-size="14.00">RoomsListComponent</text>
</g>
<!-- RoomsListComponent&#45;&gt;ChatRoomModule -->
<g id="edge13" class="edge"><title>RoomsListComponent&#45;&gt;ChatRoomModule</title>
<path fill="none" stroke="black" d="M1549.7,-122.145C1549.7,-122.145 1549.7,-216.925 1549.7,-216.925"/>
<polygon fill="black" stroke="black" points="1546.2,-216.925 1549.7,-226.925 1553.2,-216.925 1546.2,-216.925"/>
</g>
<!-- CreateRoomComponent -->
<g id="node15" class="node"><title>CreateRoomComponent</title>
<polygon fill="#ffffb3" stroke="black" points="1843.09,-122 1690.91,-122 1690.91,-86 1843.09,-86 1843.09,-122"/>
<text text-anchor="middle" x="1767" y="-99.8" font-family="Times,serif" font-size="14.00">CreateRoomComponent</text>
</g>
<!-- CreateRoomComponent&#45;&gt;ChatRoomModule -->
<g id="edge14" class="edge"><title>CreateRoomComponent&#45;&gt;ChatRoomModule</title>
<path fill="none" stroke="black" d="M1690.62,-104C1684.34,-104 1680.34,-104 1680.34,-104 1680.34,-104 1680.34,-245 1680.34,-245 1680.34,-245 1673.17,-245 1673.17,-245"/>
<polygon fill="black" stroke="black" points="1673.17,-241.5 1663.17,-245 1673.17,-248.5 1673.17,-241.5"/>
</g>
<!-- RoomComponent -->
<g id="node16" class="node"><title>RoomComponent</title>
<polygon fill="#ffffb3" stroke="black" points="1976.56,-122 1861.44,-122 1861.44,-86 1976.56,-86 1976.56,-122"/>
<text text-anchor="middle" x="1919" y="-99.8" font-family="Times,serif" font-size="14.00">RoomComponent</text>
</g>
<!-- RoomComponent&#45;&gt;ChatRoomModule -->
<g id="edge15" class="edge"><title>RoomComponent&#45;&gt;ChatRoomModule</title>
<path fill="none" stroke="black" d="M1919,-122.236C1919,-151.574 1919,-206 1919,-206 1919,-206 1583.16,-206 1583.16,-206 1583.16,-206 1583.16,-216.87 1583.16,-216.87"/>
<polygon fill="black" stroke="black" points="1579.66,-216.87 1583.16,-226.87 1586.66,-216.87 1579.66,-216.87"/>
</g>
<!-- CommonModule -->
<g id="node17" class="node"><title>CommonModule</title>
<polygon fill="#8dd3c7" stroke="black" points="2236.67,-122 2233.67,-126 2212.67,-126 2209.67,-122 2125.33,-122 2125.33,-86 2236.67,-86 2236.67,-122"/>
<text text-anchor="middle" x="2181" y="-99.8" font-family="Times,serif" font-size="14.00">CommonModule</text>
</g>
<!-- CommonModule&#45;&gt;HomeModule -->
<g id="edge26" class="edge"><title>CommonModule&#45;&gt;HomeModule</title>
<path fill="none" stroke="black" d="M2162.39,-122.243C2162.39,-129.43 2162.39,-136 2162.39,-136 2162.39,-136 1536.12,-136 1536.12,-136 1536.12,-136 1536.12,-151.849 1536.12,-151.849"/>
<polygon fill="black" stroke="black" points="1532.62,-151.849 1536.12,-161.849 1539.62,-151.85 1532.62,-151.849"/>
</g>
<!-- CommonModule&#45;&gt;ChatRoomModule -->
<g id="edge16" class="edge"><title>CommonModule&#45;&gt;ChatRoomModule</title>
<path fill="none" stroke="black" d="M2199.61,-122.49C2199.61,-153.589 2199.61,-213 2199.61,-213 2199.61,-213 1609.81,-213 1609.81,-213 1609.81,-213 1609.81,-216.757 1609.81,-216.757"/>
<polygon fill="black" stroke="black" points="1606.31,-216.757 1609.81,-226.757 1613.31,-216.757 1606.31,-216.757"/>
</g>
<!-- MaterialModule -->
<g id="node18" class="node"><title>MaterialModule</title>
<polygon fill="#8dd3c7" stroke="black" points="2107.47,-122 2104.47,-126 2083.47,-126 2080.47,-122 2000.53,-122 2000.53,-86 2107.47,-86 2107.47,-122"/>
<text text-anchor="middle" x="2054" y="-99.8" font-family="Times,serif" font-size="14.00">MaterialModule</text>
</g>
<!-- MaterialModule&#45;&gt;SharedModule -->
<g id="edge31" class="edge"><title>MaterialModule&#45;&gt;SharedModule</title>
<path fill="none" stroke="black" d="M2027.26,-122.168C2027.26,-124.448 2027.26,-126 2027.26,-126 2027.26,-126 1305.81,-126 1305.81,-126 1305.81,-126 1305.81,-151.718 1305.81,-151.718"/>
<polygon fill="black" stroke="black" points="1302.31,-151.718 1305.81,-161.718 1309.31,-151.718 1302.31,-151.718"/>
</g>
<!-- MaterialModule&#45;&gt;HomeModule -->
<g id="edge27" class="edge"><title>MaterialModule&#45;&gt;HomeModule</title>
<path fill="none" stroke="black" d="M2054,-122.207C2054,-127.555 2054,-132 2054,-132 2054,-132 1533.37,-132 1533.37,-132 1533.37,-132 1533.37,-151.853 1533.37,-151.853"/>
<polygon fill="black" stroke="black" points="1529.87,-151.853 1533.37,-161.853 1536.87,-151.853 1529.87,-151.853"/>
</g>
<!-- MaterialModule&#45;&gt;ChatRoomModule -->
<g id="edge18" class="edge"><title>MaterialModule&#45;&gt;ChatRoomModule</title>
<path fill="none" stroke="black" d="M2080.74,-122.29C2080.74,-152.373 2080.74,-209 2080.74,-209 2080.74,-209 1596.49,-209 1596.49,-209 1596.49,-209 1596.49,-216.578 1596.49,-216.578"/>
<polygon fill="black" stroke="black" points="1592.99,-216.578 1596.49,-226.578 1599.99,-216.578 1592.99,-216.578"/>
</g>
<!-- RouterModule.forChild(args) -->
<g id="node19" class="node"><title>RouterModule.forChild(args)</title>
<polygon fill="#8dd3c7" stroke="black" points="2435.73,-122 2432.73,-126 2411.73,-126 2408.73,-122 2254.27,-122 2254.27,-86 2435.73,-86 2435.73,-122"/>
<text text-anchor="middle" x="2345" y="-99.8" font-family="Times,serif" font-size="14.00">RouterModule.forChild(args)</text>
</g>
<!-- RouterModule.forChild(args)&#45;&gt;HomeModule -->
<g id="edge28" class="edge"><title>RouterModule.forChild(args)&#45;&gt;HomeModule</title>
<path fill="none" stroke="black" d="M2314.79,-122.169C2314.79,-126.046 2314.79,-129 2314.79,-129 2314.79,-129 1521.8,-129 1521.8,-129 1521.8,-129 1521.8,-151.876 1521.8,-151.876"/>
<polygon fill="black" stroke="black" points="1518.3,-151.876 1521.8,-161.876 1525.3,-151.876 1518.3,-151.876"/>
</g>
<!-- RouterModule.forChild(args)&#45;&gt;ChatRoomModule -->
<g id="edge19" class="edge"><title>RouterModule.forChild(args)&#45;&gt;ChatRoomModule</title>
<path fill="none" stroke="black" d="M2375.21,-122.155C2375.21,-154.098 2375.21,-217 2375.21,-217 2375.21,-217 1623.14,-217 1623.14,-217 1623.14,-217 1623.14,-217.979 1623.14,-217.979"/>
<polygon fill="black" stroke="black" points="1619.64,-216.793 1623.14,-226.793 1626.64,-216.793 1619.64,-216.793"/>
</g>
<!-- ChatRoomService -->
<g id="node20" class="node"><title>ChatRoomService</title>
<ellipse fill="#fdb462" stroke="black" cx="2542" cy="-104" rx="81.6808" ry="18"/>
<text text-anchor="middle" x="2542" y="-99.8" font-family="Times,serif" font-size="14.00">ChatRoomService</text>
</g>
<!-- ChatRoomService&#45;&gt;ChatRoomModule -->
<g id="edge21" class="edge"><title>ChatRoomService&#45;&gt;ChatRoomModule</title>
<path fill="none" stroke="black" d="M2542,-122.125C2542,-154.75 2542,-220 2542,-220 2542,-220 1636.46,-220 1636.46,-220 1636.46,-220 1636.46,-220.683 1636.46,-220.683"/>
<polygon fill="black" stroke="black" points="1632.96,-216.831 1636.46,-226.831 1639.96,-216.831 1632.96,-216.831"/>
</g>
<!-- ChatRoomGuard -->
<g id="node21" class="node"><title>ChatRoomGuard</title>
<ellipse fill="#fdb462" stroke="black" cx="2719" cy="-104" rx="77.0294" ry="18"/>
<text text-anchor="middle" x="2719" y="-99.8" font-family="Times,serif" font-size="14.00">ChatRoomGuard</text>
</g>
<!-- ChatRoomGuard&#45;&gt;ChatRoomModule -->
<g id="edge22" class="edge"><title>ChatRoomGuard&#45;&gt;ChatRoomModule</title>
<path fill="none" stroke="black" d="M2719,-122.225C2719,-155.795 2719,-224 2719,-224 2719,-224 1649.78,-224 1649.78,-224 1649.78,-224 1649.78,-224.292 1649.78,-224.292"/>
<polygon fill="black" stroke="black" points="1646.29,-216.92 1649.78,-226.92 1653.29,-216.92 1646.29,-216.92"/>
</g>
<!-- AngularFireModule.initializeApp(args) -->
<g id="node22" class="node"><title>AngularFireModule.initializeApp(args)</title>
<polygon fill="#8dd3c7" stroke="black" points="1330.71,-122 1327.71,-126 1306.71,-126 1303.71,-122 1093.29,-122 1093.29,-86 1330.71,-86 1330.71,-122"/>
<text text-anchor="middle" x="1212" y="-99.8" font-family="Times,serif" font-size="14.00">AngularFireModule.initializeApp(args)</text>
</g>
<!-- AngularFireModule.initializeApp(args)&#45;&gt;CoreModule -->
<g id="edge23" class="edge"><title>AngularFireModule.initializeApp(args)&#45;&gt;CoreModule</title>
<path fill="none" stroke="black" d="M1326.41,-122.011C1326.41,-144.485 1326.41,-180 1326.41,-180 1326.41,-180 1330.64,-180 1330.64,-180"/>
<polygon fill="black" stroke="black" points="1330.64,-183.5 1340.64,-180 1330.64,-176.5 1330.64,-183.5"/>
</g>
<!-- HomeComponent -->
<g id="node23" class="node"><title>HomeComponent</title>
<polygon fill="#ffffb3" stroke="black" points="1052.55,-122 937.455,-122 937.455,-86 1052.55,-86 1052.55,-122"/>
<text text-anchor="middle" x="995" y="-99.8" font-family="Times,serif" font-size="14.00">HomeComponent</text>
</g>
<!-- HomeComponent&#45;&gt;HomeModule -->
<g id="edge24" class="edge"><title>HomeComponent&#45;&gt;HomeModule</title>
<path fill="none" stroke="black" d="M1047.55,-122.32C1047.55,-130.788 1047.55,-139 1047.55,-139 1047.55,-139 1496.03,-139 1496.03,-139 1496.03,-139 1496.03,-151.897 1496.03,-151.897"/>
<polygon fill="black" stroke="black" points="1492.53,-151.897 1496.03,-161.897 1499.53,-151.897 1492.53,-151.897"/>
</g>
<!-- LoginComponent -->
<g id="node24" class="node"><title>LoginComponent</title>
<polygon fill="#ffffb3" stroke="black" points="919.276,-122 804.724,-122 804.724,-86 919.276,-86 919.276,-122"/>
<text text-anchor="middle" x="862" y="-99.8" font-family="Times,serif" font-size="14.00">LoginComponent</text>
</g>
<!-- LoginComponent&#45;&gt;HomeModule -->
<g id="edge25" class="edge"><title>LoginComponent&#45;&gt;HomeModule</title>
<path fill="none" stroke="black" d="M915.529,-122.11C915.529,-131.897 915.529,-142 915.529,-142 915.529,-142 1479.06,-142 1479.06,-142 1479.06,-142 1479.06,-151.89 1479.06,-151.89"/>
<polygon fill="black" stroke="black" points="1475.56,-151.89 1479.06,-161.89 1482.56,-151.89 1475.56,-151.89"/>
</g>
<!-- CameraComponent -->
<g id="node26" class="node"><title>CameraComponent</title>
<polygon fill="#ffffb3" stroke="black" points="621.364,-122 496.636,-122 496.636,-86 621.364,-86 621.364,-122"/>
<text text-anchor="middle" x="559" y="-99.8" font-family="Times,serif" font-size="14.00">CameraComponent</text>
</g>
<!-- CameraComponent&#45;&gt;SharedModule -->
<g id="edge30" class="edge"><title>CameraComponent&#45;&gt;SharedModule</title>
<path fill="none" stroke="black" d="M559,-122.044C559,-134.563 559,-149 559,-149 559,-149 1289.4,-149 1289.4,-149 1289.4,-149 1289.4,-151.967 1289.4,-151.967"/>
<polygon fill="black" stroke="black" points="1285.9,-151.967 1289.4,-161.967 1292.9,-151.967 1285.9,-151.967"/>
</g>
<!-- SessionService -->
<g id="node28" class="node"><title>SessionService</title>
<ellipse fill="#fdb462" stroke="black" cx="252" cy="-104" rx="69.4974" ry="18"/>
<text text-anchor="middle" x="252" y="-99.8" font-family="Times,serif" font-size="14.00">SessionService</text>
</g>
<!-- SessionService&#45;&gt;SharedModule -->
<g id="edge33" class="edge"><title>SessionService&#45;&gt;SharedModule</title>
<path fill="none" stroke="black" d="M252,-122.187C252,-137.182 252,-156 252,-156 252,-156 1256.6,-156 1256.6,-156 1256.6,-156 1256.6,-156.581 1256.6,-156.581"/>
<polygon fill="black" stroke="black" points="1253.1,-151.81 1256.6,-161.81 1260.1,-151.81 1253.1,-151.81"/>
</g>
<!-- CameraService -->
<g id="node29" class="node"><title>CameraService</title>
<ellipse fill="#fdb462" stroke="black" cx="94" cy="-104" rx="70.0384" ry="18"/>
<text text-anchor="middle" x="94" y="-99.8" font-family="Times,serif" font-size="14.00">CameraService</text>
</g>
<!-- CameraService&#45;&gt;SharedModule -->
<g id="edge34" class="edge"><title>CameraService&#45;&gt;SharedModule</title>
<path fill="none" stroke="black" d="M94,-122.009C94,-138.049 94,-159 94,-159 94,-159 1240.19,-159 1240.19,-159 1240.19,-159 1240.19,-159.292 1240.19,-159.292"/>
<polygon fill="black" stroke="black" points="1236.69,-151.92 1240.19,-161.92 1243.69,-151.92 1236.69,-151.92"/>
</g>
</g>
</svg>
